<mxfile host="www.draw.io" modified="2019-12-13T07:23:39.960Z" agent="Mozilla/5.0 (Macintosh; Intel Mac OS X 10_15_1) AppleWebKit/537.36 (KHTML, like Gecko) Chrome/78.0.3904.108 Safari/537.36" etag="npAQea0Zpgi2_pFBYCvE" version="12.4.1" type="github" pages="1">
  <diagram id="EYBx7FgwSn-YbzoGzWi-" name="第 1 页">
    <mxGraphModel dx="1412" dy="932" grid="1" gridSize="10" guides="1" tooltips="1" connect="1" arrows="1" fold="1" page="1" pageScale="1" pageWidth="827" pageHeight="1169" math="0" shadow="0">
      <root>
        <mxCell id="0"/>
        <mxCell id="1" parent="0"/>
        <mxCell id="7my_y8ZJZvrOHgwq5rQ_-10" style="edgeStyle=orthogonalEdgeStyle;rounded=0;orthogonalLoop=1;jettySize=auto;html=1;entryX=0;entryY=0.5;entryDx=0;entryDy=0;" edge="1" parent="1" source="7my_y8ZJZvrOHgwq5rQ_-1" target="7my_y8ZJZvrOHgwq5rQ_-2">
          <mxGeometry relative="1" as="geometry"/>
        </mxCell>
        <mxCell id="7my_y8ZJZvrOHgwq5rQ_-11" style="edgeStyle=orthogonalEdgeStyle;rounded=0;orthogonalLoop=1;jettySize=auto;html=1;entryX=0;entryY=0.5;entryDx=0;entryDy=0;" edge="1" parent="1" source="7my_y8ZJZvrOHgwq5rQ_-1" target="7my_y8ZJZvrOHgwq5rQ_-4">
          <mxGeometry relative="1" as="geometry"/>
        </mxCell>
        <mxCell id="7my_y8ZJZvrOHgwq5rQ_-12" style="edgeStyle=orthogonalEdgeStyle;rounded=0;orthogonalLoop=1;jettySize=auto;html=1;entryX=0;entryY=0.5;entryDx=0;entryDy=0;" edge="1" parent="1" source="7my_y8ZJZvrOHgwq5rQ_-1" target="7my_y8ZJZvrOHgwq5rQ_-3">
          <mxGeometry relative="1" as="geometry"/>
        </mxCell>
        <mxCell id="7my_y8ZJZvrOHgwq5rQ_-13" style="edgeStyle=orthogonalEdgeStyle;rounded=0;orthogonalLoop=1;jettySize=auto;html=1;entryX=0;entryY=0.5;entryDx=0;entryDy=0;" edge="1" parent="1" source="7my_y8ZJZvrOHgwq5rQ_-1" target="7my_y8ZJZvrOHgwq5rQ_-5">
          <mxGeometry relative="1" as="geometry"/>
        </mxCell>
        <mxCell id="7my_y8ZJZvrOHgwq5rQ_-1" value="项目" style="rounded=0;whiteSpace=wrap;html=1;fillColor=#dae8fc;strokeColor=#6c8ebf;" vertex="1" parent="1">
          <mxGeometry x="160" y="200" width="50" height="30" as="geometry"/>
        </mxCell>
        <mxCell id="7my_y8ZJZvrOHgwq5rQ_-14" style="edgeStyle=orthogonalEdgeStyle;rounded=0;orthogonalLoop=1;jettySize=auto;html=1;entryX=0;entryY=0.5;entryDx=0;entryDy=0;elbow=vertical;" edge="1" parent="1" source="7my_y8ZJZvrOHgwq5rQ_-2" target="7my_y8ZJZvrOHgwq5rQ_-9">
          <mxGeometry relative="1" as="geometry"/>
        </mxCell>
        <mxCell id="7my_y8ZJZvrOHgwq5rQ_-15" style="edgeStyle=orthogonalEdgeStyle;rounded=0;orthogonalLoop=1;jettySize=auto;html=1;entryX=0;entryY=0.5;entryDx=0;entryDy=0;elbow=vertical;" edge="1" parent="1" source="7my_y8ZJZvrOHgwq5rQ_-2" target="7my_y8ZJZvrOHgwq5rQ_-8">
          <mxGeometry relative="1" as="geometry"/>
        </mxCell>
        <mxCell id="7my_y8ZJZvrOHgwq5rQ_-16" style="edgeStyle=orthogonalEdgeStyle;rounded=0;orthogonalLoop=1;jettySize=auto;html=1;entryX=0;entryY=0.5;entryDx=0;entryDy=0;elbow=vertical;" edge="1" parent="1" source="7my_y8ZJZvrOHgwq5rQ_-2" target="7my_y8ZJZvrOHgwq5rQ_-7">
          <mxGeometry relative="1" as="geometry"/>
        </mxCell>
        <mxCell id="7my_y8ZJZvrOHgwq5rQ_-18" style="edgeStyle=orthogonalEdgeStyle;rounded=0;orthogonalLoop=1;jettySize=auto;html=1;entryX=0;entryY=0.5;entryDx=0;entryDy=0;" edge="1" parent="1" source="7my_y8ZJZvrOHgwq5rQ_-2" target="7my_y8ZJZvrOHgwq5rQ_-17">
          <mxGeometry relative="1" as="geometry"/>
        </mxCell>
        <mxCell id="7my_y8ZJZvrOHgwq5rQ_-2" value="数据源1" style="rounded=0;whiteSpace=wrap;html=1;fillColor=#ffe6cc;strokeColor=#d79b00;" vertex="1" parent="1">
          <mxGeometry x="320" y="120" width="50" height="30" as="geometry"/>
        </mxCell>
        <mxCell id="7my_y8ZJZvrOHgwq5rQ_-3" value="数据源3" style="rounded=0;whiteSpace=wrap;html=1;fillColor=#ffe6cc;strokeColor=#d79b00;" vertex="1" parent="1">
          <mxGeometry x="320" y="230" width="50" height="30" as="geometry"/>
        </mxCell>
        <mxCell id="7my_y8ZJZvrOHgwq5rQ_-4" value="数据源2" style="rounded=0;whiteSpace=wrap;html=1;fillColor=#ffe6cc;strokeColor=#d79b00;" vertex="1" parent="1">
          <mxGeometry x="320" y="175" width="50" height="30" as="geometry"/>
        </mxCell>
        <mxCell id="7my_y8ZJZvrOHgwq5rQ_-5" value="数据源4" style="rounded=0;whiteSpace=wrap;html=1;fillColor=#ffe6cc;strokeColor=#d79b00;" vertex="1" parent="1">
          <mxGeometry x="320" y="290" width="50" height="30" as="geometry"/>
        </mxCell>
        <mxCell id="7my_y8ZJZvrOHgwq5rQ_-7" value="标注任务3" style="rounded=0;whiteSpace=wrap;html=1;fillColor=#d5e8d4;strokeColor=#82b366;" vertex="1" parent="1">
          <mxGeometry x="480" y="130" width="70" height="30" as="geometry"/>
        </mxCell>
        <mxCell id="7my_y8ZJZvrOHgwq5rQ_-8" value="标注任务2" style="rounded=0;whiteSpace=wrap;html=1;fillColor=#d5e8d4;strokeColor=#82b366;" vertex="1" parent="1">
          <mxGeometry x="480" y="80" width="70" height="30" as="geometry"/>
        </mxCell>
        <mxCell id="7my_y8ZJZvrOHgwq5rQ_-9" value="标注任务1" style="rounded=0;whiteSpace=wrap;html=1;fillColor=#d5e8d4;strokeColor=#82b366;" vertex="1" parent="1">
          <mxGeometry x="480" y="30" width="70" height="30" as="geometry"/>
        </mxCell>
        <mxCell id="7my_y8ZJZvrOHgwq5rQ_-17" value="标注任务4" style="rounded=0;whiteSpace=wrap;html=1;fillColor=#d5e8d4;strokeColor=#82b366;" vertex="1" parent="1">
          <mxGeometry x="480" y="180" width="70" height="30" as="geometry"/>
        </mxCell>
        <mxCell id="7my_y8ZJZvrOHgwq5rQ_-21" value="项目-数据源-标注任务关系" style="text;html=1;strokeColor=#666666;fillColor=#f5f5f5;align=center;verticalAlign=middle;whiteSpace=wrap;rounded=0;fontColor=#333333;" vertex="1" parent="1">
          <mxGeometry x="280" y="340" width="155" height="20" as="geometry"/>
        </mxCell>
      </root>
    </mxGraphModel>
  </diagram>
</mxfile>
